<svg xmlns="http://www.w3.org/2000/svg" xmlns:xlink="http://www.w3.org/1999/xlink" viewBox="0 0 421.16 107.15"><defs><style>.cls-1{fill:url(#linear-gradient);}.cls-2{fill:url(#linear-gradient-2);}.cls-3{fill:url(#linear-gradient-3);}.cls-4{fill:url(#linear-gradient-4);}.cls-5{fill:url(#linear-gradient-5);}.cls-6{fill:url(#linear-gradient-6);}.cls-7{fill:url(#linear-gradient-7);}.cls-8{fill:url(#linear-gradient-8);}.cls-9{fill:url(#linear-gradient-9);}.cls-10{fill:url(#linear-gradient-10);}.cls-11{fill:url(#linear-gradient-11);}.cls-12{fill:url(#linear-gradient-12);}.cls-13{fill:url(#linear-gradient-13);}.cls-14{fill:url(#linear-gradient-14);}.cls-15{fill:url(#linear-gradient-15);}.cls-16{fill:url(#linear-gradient-16);}.cls-17{fill:url(#linear-gradient-17);}.cls-18{fill:url(#linear-gradient-18);}.cls-19{fill:url(#linear-gradient-19);}.cls-20{fill:url(#linear-gradient-20);}.cls-21{fill:url(#linear-gradient-21);}.cls-22{fill:url(#linear-gradient-22);}.cls-23{fill:url(#linear-gradient-23);}.cls-24{fill:url(#linear-gradient-24);}.cls-25{fill:url(#linear-gradient-25);}.cls-26{fill:#606cfb;}</style><linearGradient id="linear-gradient" x1="-3.67" y1="43.53" x2="-4.83" y2="174.27" gradientTransform="matrix(0.98, 0, 0, -0.98, 24.44, 147.44)" gradientUnits="userSpaceOnUse"><stop offset="0" stop-color="#5f67ff" stop-opacity="0.8"/><stop offset="0.08" stop-color="#5f67ff" stop-opacity="0.84"/><stop offset="0.19" stop-color="#5f67ff" stop-opacity="0.88"/><stop offset="0.31" stop-color="#5f67ff" stop-opacity="0.92"/><stop offset="0.42" stop-color="#5f67ff" stop-opacity="0.95"/><stop offset="0.55" stop-color="#5f67ff" stop-opacity="0.97"/><stop offset="0.68" stop-color="#5f67ff" stop-opacity="0.99"/><stop offset="0.82" stop-color="#5f67ff"/><stop offset="1" stop-color="#5f67ff"/></linearGradient><linearGradient id="linear-gradient-2" x1="-14.94" y1="32.31" x2="-16.11" y2="163.05" xlink:href="#linear-gradient"/><linearGradient id="linear-gradient-3" x1="-358.22" y1="-247.95" x2="-359.38" y2="-117.21" gradientTransform="matrix(0.83, 0, 0, -0.83, 329.21, -106.32)" xlink:href="#linear-gradient"/><linearGradient id="linear-gradient-4" x1="-700.32" y1="-490.71" x2="-701.48" y2="-359.97" gradientTransform="matrix(0.73, 0, 0, -0.73, 554.21, -254.81)" xlink:href="#linear-gradient"/><linearGradient id="linear-gradient-5" x1="28.11" y1="42.23" x2="26.94" y2="172.97" gradientTransform="matrix(0.98, 0, 0, -0.98, 26.32, 149.31)" xlink:href="#linear-gradient"/><linearGradient id="linear-gradient-6" x1="38.74" y1="41.19" x2="37.57" y2="171.93" gradientTransform="matrix(0.98, 0, 0, -0.98, 26.94, 149.95)" xlink:href="#linear-gradient"/><linearGradient id="linear-gradient-7" x1="17.72" y1="42.42" x2="16.56" y2="173.16" gradientTransform="matrix(0.98, 0, 0, -0.98, 25.69, 146.2)" xlink:href="#linear-gradient"/><linearGradient id="linear-gradient-8" x1="27.57" y1="-61.35" x2="26.41" y2="69.39" gradientTransform="matrix(0.92, 0, 0, -0.92, 28.78, 44.05)" xlink:href="#linear-gradient"/><linearGradient id="linear-gradient-9" x1="34.47" y1="-137.48" x2="33.31" y2="-6.74" gradientTransform="matrix(0.88, 0, 0, -0.88, 34.96, -22.55)" xlink:href="#linear-gradient"/><linearGradient id="linear-gradient-10" x1="-368.5" y1="-245.6" x2="-369.66" y2="-114.86" gradientTransform="matrix(0.83, 0, 0, -0.83, 383.51, -104.31)" xlink:href="#linear-gradient"/><linearGradient id="linear-gradient-11" x1="-768.81" y1="-496.17" x2="-769.97" y2="-365.42" gradientTransform="matrix(0.72, 0, 0, -0.72, 641.58, -258.58)" xlink:href="#linear-gradient"/><linearGradient id="linear-gradient-12" x1="19.34" y1="-136.41" x2="18.18" y2="-5.67" gradientTransform="matrix(0.88, 0, 0, -0.88, 25.9, -21.03)" xlink:href="#linear-gradient"/><linearGradient id="linear-gradient-13" x1="6.94" y1="43.03" x2="5.78" y2="173.77" gradientTransform="matrix(0.98, 0, 0, -0.98, 25.07, 146.82)" xlink:href="#linear-gradient"/><linearGradient id="linear-gradient-14" x1="-738.39" y1="-495.24" x2="-739.55" y2="-364.5" gradientTransform="matrix(0.72, 0, 0, -0.72, 597.38, -258.72)" xlink:href="#linear-gradient"/><linearGradient id="linear-gradient-15" x1="-362.45" y1="-245.99" x2="-363.61" y2="-115.25" gradientTransform="matrix(0.83, 0, 0, -0.83, 356.42, -104.52)" xlink:href="#linear-gradient"/><linearGradient id="linear-gradient-16" x1="49.37" y1="41.67" x2="48.21" y2="172.41" gradientTransform="matrix(0.98, 0, 0, -0.98, 27.57, 149.31)" xlink:href="#linear-gradient"/><linearGradient id="linear-gradient-17" x1="26.87" y1="44.95" x2="25.71" y2="175.69" gradientTransform="matrix(0.99, 0, 0, -0.99, 27.7, 150.39)" xlink:href="#linear-gradient"/><linearGradient id="linear-gradient-18" x1="48.04" y1="46.23" x2="46.88" y2="176.97" gradientTransform="matrix(0.99, 0, 0, -0.99, 28.93, 151.62)" xlink:href="#linear-gradient"/><linearGradient id="linear-gradient-19" x1="39.27" y1="42.3" x2="38.11" y2="173.04" gradientTransform="matrix(0.98, 0, 0, -0.98, 26.93, 146.2)" xlink:href="#linear-gradient"/><linearGradient id="linear-gradient-20" x1="60.35" y1="43.95" x2="59.18" y2="174.69" gradientTransform="matrix(0.98, 0, 0, -0.98, 28.18, 147.44)" xlink:href="#linear-gradient"/><linearGradient id="linear-gradient-21" x1="71.71" y1="32.63" x2="70.55" y2="163.37" gradientTransform="matrix(0.98, 0, 0, -0.98, 28.19, 147.45)" xlink:href="#linear-gradient"/><linearGradient id="linear-gradient-22" x1="26.37" y1="43.03" x2="25.21" y2="173.77" gradientTransform="matrix(0.99, 0, 0, -0.99, 27.7, 155.37)" xlink:href="#linear-gradient"/><linearGradient id="linear-gradient-23" x1="6.98" y1="41.04" x2="5.81" y2="171.78" gradientTransform="matrix(0.98, 0, 0, -0.98, 25.06, 149.3)" xlink:href="#linear-gradient"/><linearGradient id="linear-gradient-24" x1="-670.81" y1="-491.74" x2="-671.98" y2="-361" gradientTransform="matrix(0.73, 0, 0, -0.73, 510.48, -254.5)" xlink:href="#linear-gradient"/><linearGradient id="linear-gradient-25" x1="17.4" y1="41.41" x2="16.24" y2="172.15" gradientTransform="matrix(0.98, 0, 0, -0.98, 25.7, 149.93)" xlink:href="#linear-gradient"/></defs><title>LOGO PAGEFLY</title><g id="Layer_2" data-name="Layer 2"><g id="Layer_1-2" data-name="Layer 1"><path class="cls-1" d="M11,42.4l9.24-9.24,9.24,9.24-9.24,9.24Z"/><path class="cls-2" d="M0,53.44,9.24,44.2l9.24,9.24L9.24,62.68Z"/><path class="cls-3" d="M23.71,55.09l7.79-7.79,7.79,7.79-7.79,7.79Z"/><path class="cls-4" d="M35.84,67.22l6.81-6.81,6.81,6.81L42.65,74Z"/><path class="cls-5" d="M47.77,79.14l5.84-5.84,5.84,5.84L53.61,85Z"/><path class="cls-6" d="M59.88,91.26l4.86-4.86,4.86,4.86-4.86,4.86Z"/><path class="cls-7" d="M33.07,20.37l9.24-9.24,9.24,9.24-9.24,9.24Z"/><path class="cls-8" d="M44.86,32.15l8.68-8.68,8.68,8.68-8.68,8.68Z"/><path class="cls-9" d="M56.41,43.7,64.7,35.4,73,43.7,64.7,52Z"/><path class="cls-10" d="M67.86,55.16l7.79-7.79,7.79,7.79-7.79,7.79Z"/><path class="cls-11" d="M80,67.27l6.81-6.81,6.81,6.81-6.81,6.81Z"/><path class="cls-12" d="M34.14,43.63l8.29-8.29,8.29,8.29-8.29,8.29Z"/><path class="cls-13" d="M22,31.47l9.24-9.24,9.24,9.24-9.24,9.24Z"/><path class="cls-14" d="M57.73,67.23l6.81-6.81,6.81,6.81L64.54,74Z"/><path class="cls-15" d="M45.81,55.31l7.79-7.79,7.79,7.79L53.6,63.09Z"/><path class="cls-16" d="M69.85,79.34l5.84-5.84,5.84,5.84-5.84,5.84Z"/><path class="cls-17" d="M44.2,9.24,53.44,0l9.24,9.24-9.24,9.24Z"/><path class="cls-18" d="M66.58,31.62l9.24-9.24,9.24,9.24-9.24,9.24Z"/><path class="cls-19" d="M55.42,20.46l9.24-9.24,9.24,9.24L64.66,29.7Z"/><path class="cls-20" d="M77.53,42.57l9.24-9.24L96,42.57l-9.24,9.24Z"/><path class="cls-21" d="M88.67,53.71l9.24-9.24,9.24,9.24L97.91,63Z"/><path class="cls-22" d="M49.83,103.26l3.9-3.9,3.9,3.9-3.9,3.9Z"/><path class="cls-23" d="M25.79,79.22l5.84-5.84,5.84,5.84-5.84,5.84Z"/><path class="cls-24" d="M13.65,67.08l6.81-6.81,6.81,6.81-6.81,6.81Z"/><path class="cls-25" d="M37.23,90.66l5.35-5.35,5.35,5.35L42.58,96Z"/><path class="cls-26" d="M130.69,55.6V77H121.8V21.9h18.72q9.52,0,14.31,4.52t4.8,12.4q0,7.8-4.91,12.29t-14.2,4.48Zm19.89-16.77q0-4.68-2.61-7.14t-8.38-2.46h-8.89V48.34h8.89Q150.58,48.34,150.58,38.83Z"/><path class="cls-26" d="M194.65,36.33A15.55,15.55,0,0,1,200.5,44V34h8.89V77H200.5V67a15.53,15.53,0,0,1-5.85,7.64,17,17,0,0,1-10,2.89,19.05,19.05,0,0,1-10-2.65,18.11,18.11,0,0,1-6.9-7.64,26,26,0,0,1-2.5-11.78,25.84,25.84,0,0,1,2.5-11.7,18.12,18.12,0,0,1,6.9-7.64,19.06,19.06,0,0,1,10-2.65A17,17,0,0,1,194.65,36.33ZM177.92,45q-3.55,3.78-3.55,10.41t3.55,10.41a12.37,12.37,0,0,0,9.48,3.78,12.92,12.92,0,0,0,6.71-1.75,12.47,12.47,0,0,0,4.68-5,15.62,15.62,0,0,0,1.72-7.49A15.68,15.68,0,0,0,198.78,48a12.42,12.42,0,0,0-4.68-5,12.92,12.92,0,0,0-6.71-1.75A12.38,12.38,0,0,0,177.92,45Z"/><path class="cls-26" d="M247.3,36.33A15.55,15.55,0,0,1,253.15,44V34H262V77.44a22.41,22.41,0,0,1-2.46,10.65,18,18,0,0,1-7.06,7.29A21.51,21.51,0,0,1,241.6,98q-9,0-14.62-4.29a18.51,18.51,0,0,1-7-11.62h8.81a10.5,10.5,0,0,0,4.21,6,13.74,13.74,0,0,0,8,2.14A12.14,12.14,0,0,0,249.71,87q3.43-3.28,3.43-9.52V67a15.53,15.53,0,0,1-5.85,7.64,17,17,0,0,1-10,2.89,19.05,19.05,0,0,1-10-2.65,18.11,18.11,0,0,1-6.9-7.64,26,26,0,0,1-2.5-11.78,25.85,25.85,0,0,1,2.5-11.7,18.12,18.12,0,0,1,6.9-7.64,19.06,19.06,0,0,1,10-2.65A17,17,0,0,1,247.3,36.33ZM230.57,45Q227,48.81,227,55.44t3.55,10.41A12.37,12.37,0,0,0,240,69.64a12.92,12.92,0,0,0,6.71-1.75,12.47,12.47,0,0,0,4.68-5,15.62,15.62,0,0,0,1.72-7.49A15.68,15.68,0,0,0,251.43,48a12.42,12.42,0,0,0-4.68-5A12.92,12.92,0,0,0,240,41.25,12.38,12.38,0,0,0,230.57,45Z"/><path class="cls-26" d="M312.35,57.24H279.28q.23,6.63,3.67,9.83a12,12,0,0,0,8.5,3.2A12.36,12.36,0,0,0,299,68a9.34,9.34,0,0,0,3.78-6h9.52a18.26,18.26,0,0,1-10.69,13.53,23.27,23.27,0,0,1-9.75,2,22.43,22.43,0,0,1-11-2.65,18.85,18.85,0,0,1-7.53-7.64,24.18,24.18,0,0,1-2.73-11.78,24,24,0,0,1,2.73-11.7,18.87,18.87,0,0,1,7.53-7.64,24.46,24.46,0,0,1,22.07,0,18.19,18.19,0,0,1,7.25,7.18,22.15,22.15,0,0,1,2.22,14Zm-10.1-11.12a10,10,0,0,0-4.37-4.21,13.5,13.5,0,0,0-6-1.36,12.49,12.49,0,0,0-8.74,3.2q-3.51,3.2-3.82,9.44h24.41A13.24,13.24,0,0,0,302.25,46.12Z"/><path class="cls-26" d="M353.77,21.9v7.18H330.13V46.16h19.5V53h-19.5V77h-8.89V21.9Z"/><path class="cls-26" d="M370.61,19.25V77h-8.89V19.25Z"/><path class="cls-26" d="M386.45,34l12.87,31.59L411.25,34h9.91l-26,63.41h-9.91L394.56,76l-18.1-42Z"/></g></g></svg>